# xmcd
#
# Track frame offsets:
#  150
#  11512
#  18275
#  29392
#  39715
#  50300
#  58902
#  70697
#  79420
#  89252
#  99575
#  109902
#  120675
#  129207
#  141235
#  156405
#  175672
#  188272
#  199825
#  209600
#  222042
#  235055
#  245817
#  256847
#
# Disc length: 3589 seconds
#
# Revision: 0
# Processed by: cddbd v1.5.1PL2 Copyright (c) Steve Scherf et al.
# Submitted via: Collectorz.com_Music_Collector 6.11
#
DISCID=4e0e0318
DTITLE=bobby bare and waylon jennings - BOBBY BARE and WAYLON JENNINGS
DYEAR=1997
DGENRE=Country
TTITLE0=Waylon Jennings - SALLY WAS A GOOD OLD GIRL
TTITLE1=Waylon Jennings - ITS SO EASY
TTITLE2=Waylon Jennings - BIG MAMOU
TTITLE3=Waylon Jennings - WHITE LIGHTING
TTITLE4=Waylon Jennings - BURNING MEMORIES
TTITLE5=Waylon Jennings - LOVES GONNA LIVE HERE
TTITLE6=Waylon Jennings - CRYING 
TTITLE7=Waylon Jennings - JOLE BLON
TTITLE8=Waylon Jennings - WHEN SIN STOPS
TTITLE9=Waylon Jennings - LORENA
TTITLE10=Waylon Jennings - MONEY
TTITLE11=Waylon Jennings - DREAM BABY
TTITLE12=Waylon Jennings - ABILENE
TTITLE13=Waylon Jennings - DONT THINK TWICE ITS ALRIGHT
TTITLE14=Bobby Bare - FOR THE GOOD TIMES
TTITLE15=Bobby Bare - ME AND BOBBY MCGEE
TTITLE16=Bobby Bare - LOVING HER WAS EASY
TTITLE17=Bobby Bare - THATS HOW I GOT TO MEMPHIS
TTITLE18=Bobby Bare - WOMAN YOU HAVE BEEN A FRIEND OF MINE
TTITLE19=Bobby Bare - THE YEAR THAT CLAYTON DELASNEY DIED
TTITLE20=Bobby Bare - I TOOK MEMORY TO MUCH
TTITLE21=Bobby Bare - DONT MAKE YOU WANT TO GO HOME
TTITLE22=Bobby Bare - HELLO DARLING
TTITLE23=Bobby Bare - WHEN LOVE IS GONE
EXTD=
EXTT0=
EXTT1=
EXTT2=
EXTT3=
EXTT4=
EXTT5=
EXTT6=
EXTT7=
EXTT8=
EXTT9=
EXTT10=
EXTT11=
EXTT12=
EXTT13=
EXTT14=
EXTT15=
EXTT16=
EXTT17=
EXTT18=
EXTT19=
EXTT20=
EXTT21=
EXTT22=
EXTT23=
PLAYORDER=
